<?xml version="1.0" encoding="UTF-8" standalone="no"?>
<svg
   xmlns:dc="http://purl.org/dc/elements/1.1/"
   xmlns:cc="http://creativecommons.org/ns#"
   xmlns:rdf="http://www.w3.org/1999/02/22-rdf-syntax-ns#"
   xmlns:svg="http://www.w3.org/2000/svg"
   xmlns="http://www.w3.org/2000/svg"
   xmlns:sodipodi="http://sodipodi.sourceforge.net/DTD/sodipodi-0.dtd"
   xmlns:inkscape="http://www.inkscape.org/namespaces/inkscape"
   width="793.700787402"
   height="1122.51968504"
   version="1.1"
   id="svg140"
   sodipodi:docname="minimoog - capot arrière inferieur.svg"
   inkscape:version="0.92.3 (2405546, 2018-03-11)">
  <sodipodi:namedview
     pagecolor="#ffffff"
     bordercolor="#666666"
     borderopacity="1"
     objecttolerance="10"
     gridtolerance="10"
     guidetolerance="10"
     inkscape:pageopacity="0"
     inkscape:pageshadow="2"
     inkscape:window-width="1364"
     inkscape:window-height="741"
     id="namedview142"
     showgrid="false"
     inkscape:zoom="0.42048261"
     inkscape:cx="715.31247"
     inkscape:cy="-96.806962"
     inkscape:window-x="0"
     inkscape:window-y="2"
     inkscape:window-maximized="1"
     inkscape:current-layer="layer3" />
  <metadata
     id="metadata144">
    <rdf:RDF>
      <cc:Work
         rdf:about="">
        <dc:format>image/svg+xml</dc:format>
        <dc:type
           rdf:resource="http://purl.org/dc/dcmitype/StillImage" />
        <dc:title />
      </cc:Work>
    </rdf:RDF>
  </metadata>
  <desc
     id="desc2">/home/pierreloupm/Documents/Projets/Synthesizer/minimoog - capot fond inferieur.dxf - scale = 1.000000, origin = (0.000000, 0.000000), method = manual</desc>
  <defs
     id="defs16">
    <marker
       style="overflow:visible"
       refY="0.0"
       refX="0.0"
       orient="auto"
       id="DistanceX">
      <path
         id="path4"
         style="stroke:#000000; stroke-width:0.5"
         d="M 3,-3 L -3,3 M 0,-5 L  0,5" />
    </marker>
    <pattern
       y="0"
       x="0"
       width="8"
       patternUnits="userSpaceOnUse"
       id="Hatch"
       height="8">
      <path
         id="path7"
         stroke-width="0.25"
         stroke="#000000"
         linecap="square"
         d="M8 4 l-4,4" />
      <path
         id="path9"
         stroke-width="0.25"
         stroke="#000000"
         linecap="square"
         d="M6 2 l-4,4" />
      <path
         id="path11"
         stroke-width="0.25"
         stroke="#000000"
         linecap="square"
         d="M4 0 l-4,4" />
    </pattern>
    <symbol
       id="*MODEL_SPACE" />
    <symbol
       id="*PAPER_SPACE" />
  </defs>
  <g
     style="display:none"
     id="g138"
     inkscape:label="capot"
     inkscape:groupmode="layer">
    <path
       inkscape:connector-curvature="0"
       id="path28"
       style="fill:none;stroke:#000000"
       d="M 0.5,1122.0197 H 1814.6732" />
    <path
       inkscape:connector-curvature="0"
       id="path32"
       style="fill:none;stroke:#000000"
       d="M 926.48425,1059.6574 H 877.35039" />
    <path
       inkscape:connector-curvature="0"
       id="path34"
       style="fill:none;stroke:#000000"
       d="m 926.48425,1059.6574 v -41.5748" />
    <path
       inkscape:connector-curvature="0"
       id="path36"
       style="fill:none;stroke:#000000"
       d="M 926.48425,1018.0826 H 877.35039" />
    <path
       inkscape:connector-curvature="0"
       id="path38"
       style="fill:none;stroke:#000000"
       d="m 877.35039,1059.6574 v -41.5748" />
    <path
       inkscape:connector-curvature="0"
       id="path40"
       style="fill:none;stroke:#000000"
       d="m 1500.9724,1056.8228 h -83.1496" />
    <path
       inkscape:connector-curvature="0"
       id="path42"
       style="fill:none;stroke:#000000"
       d="m 1500.9724,1056.8228 v -35.9055" />
    <path
       inkscape:connector-curvature="0"
       id="path44"
       style="fill:none;stroke:#000000"
       d="m 1500.9724,1020.9173 h -83.1496" />
    <path
       inkscape:connector-curvature="0"
       id="path46"
       style="fill:none;stroke:#000000"
       d="m 1417.8228,1056.8228 v -35.9055" />
    <path
       inkscape:connector-curvature="0"
       id="path48"
       style="fill:none;stroke:#000000"
       d="M 1361.1299,1069.1063 H 1255.3031" />
    <path
       inkscape:connector-curvature="0"
       id="path50"
       style="fill:none;stroke:#000000"
       d="m 1361.1299,1069.1063 v -60.4725" />
    <path
       inkscape:connector-curvature="0"
       id="path52"
       style="fill:none;stroke:#000000"
       d="M 1361.1299,1008.6338 H 1255.3031" />
    <path
       inkscape:connector-curvature="0"
       id="path54"
       style="fill:none;stroke:#000000"
       d="m 1255.3031,1069.1063 v -60.4725" />
    <path
       inkscape:connector-curvature="0"
       id="path56"
       style="fill:none;stroke:#000000"
       d="m 748.84646,1038.87 a 28.34646,28.34646 0 1 0 -56.69292,0 28.34646,28.34646 0 1 0 56.69292,0 z" />
    <path
       inkscape:connector-curvature="0"
       id="path58"
       style="fill:none;stroke:#000000"
       d="m 627.90157,1038.87 a 28.346457,28.346457 0 1 0 -56.69291,0 28.346457,28.346457 0 1 0 56.69291,0 z" />
    <path
       inkscape:connector-curvature="0"
       id="path60"
       style="fill:none;stroke:#000000"
       d="m 1126.7992,1038.87 a 17.007874,17.007874 0 1 0 -34.0157,0 17.007874,17.007874 0 1 0 34.0157,0 z" />
    <path
       inkscape:connector-curvature="0"
       id="path62"
       style="fill:none;stroke:#000000"
       d="m 1032.311,1038.87 a 17.007874,17.007874 0 1 0 -34.01573,0 17.007874,17.007874 0 1 0 34.01573,0 z" />
    <path
       inkscape:connector-curvature="0"
       id="path64"
       style="fill:none;stroke:#000000"
       d="m 442.70472,1038.87 a 17.007874,17.007874 0 1 0 -34.01574,0 17.007874,17.007874 0 1 0 34.01574,0 z" />
    <path
       inkscape:connector-curvature="0"
       id="path66"
       style="fill:none;stroke:#000000"
       d="m 348.21653,1038.87 a 17.007874,17.007874 0 1 0 -34.01574,0 17.007874,17.007874 0 1 0 34.01574,0 z" />
    <path
       inkscape:connector-curvature="0"
       id="path68"
       style="fill:none;stroke:#000000"
       d="m 901.53937,505.9568 a 6.047245,6.047245 0 1 0 12.09449,-10e-6" />
    <path
       inkscape:connector-curvature="0"
       id="path70"
       style="fill:none;stroke:#000000"
       d="M 901.53934,505.9568 V 487.05915" />
    <path
       inkscape:connector-curvature="0"
       id="path72"
       style="fill:none;stroke:#000000"
       d="M 901.53934,487.05915 H 535.68109" />
    <path
       inkscape:connector-curvature="0"
       id="path74"
       style="fill:none;stroke:#000000"
       d="M 535.68109,487.05915 V 505.9568" />
    <path
       inkscape:connector-curvature="0"
       id="path76"
       style="fill:none;stroke:#000000"
       d="m 523.58661,505.9568 a 6.047245,6.047245 0 1 0 12.09449,-10e-6" />
    <path
       inkscape:connector-curvature="0"
       id="path78"
       style="fill:none;stroke:#000000"
       d="M 523.58662,487.05915 V 505.9568" />
    <path
       inkscape:connector-curvature="0"
       id="path80"
       style="fill:none;stroke:#000000"
       d="M 523.58662,487.05915 H 157.72837" />
    <path
       inkscape:connector-curvature="0"
       id="path82"
       style="fill:none;stroke:#000000"
       d="M 157.72837,487.05915 V 505.9568" />
    <path
       inkscape:connector-curvature="0"
       id="path84"
       style="fill:none;stroke:#000000"
       d="m 145.63386,505.9568 a 6.047244,6.047244 0 1 0 12.09448,-10e-6" />
    <path
       inkscape:connector-curvature="0"
       id="path86"
       style="fill:none;stroke:#000000"
       d="M 145.63383,487.05915 V 505.9568" />
    <path
       inkscape:connector-curvature="0"
       id="path88"
       style="fill:none;stroke:#000000"
       d="M 145.63383,487.05915 H 0.5" />
    <path
       inkscape:connector-curvature="0"
       id="path98"
       style="fill:none;stroke:#000000"
       d="M 1814.6731,487.05915 H 1669.5394" />
    <path
       inkscape:connector-curvature="0"
       id="path100"
       style="fill:none;stroke:#000000"
       d="M 1669.5394,487.05915 V 505.9568" />
    <path
       inkscape:connector-curvature="0"
       id="path102"
       style="fill:none;stroke:#000000"
       d="m 1657.4448,505.9568 a 6.04725,6.04725 0 1 0 12.0945,-10e-6" />
    <path
       inkscape:connector-curvature="0"
       id="path104"
       style="fill:none;stroke:#000000"
       d="M 1657.4449,487.05915 V 505.9568" />
    <path
       inkscape:connector-curvature="0"
       id="path106"
       style="fill:none;stroke:#000000"
       d="M 1657.4449,487.05915 H 1291.5866" />
    <path
       inkscape:connector-curvature="0"
       id="path108"
       style="fill:none;stroke:#000000"
       d="M 1291.5866,487.05915 V 505.9568" />
    <path
       inkscape:connector-curvature="0"
       id="path110"
       style="fill:none;stroke:#000000"
       d="m 1279.4921,505.9568 a 6.04725,6.04725 0 1 0 12.0945,-10e-6" />
    <path
       inkscape:connector-curvature="0"
       id="path112"
       style="fill:none;stroke:#000000"
       d="M 1279.4922,487.05915 V 505.9568" />
    <path
       inkscape:connector-curvature="0"
       id="path114"
       style="fill:none;stroke:#000000"
       d="M 1279.4922,487.05915 H 913.63388" />
    <path
       inkscape:connector-curvature="0"
       id="path116"
       style="fill:none;stroke:#000000"
       d="M 1750.4212,717.6102 H 1553.8857" />
    <path
       inkscape:connector-curvature="0"
       id="path118"
       style="fill:none;stroke:#000000"
       d="m 1757.9802,725.16926 a 7.559055,7.559055 0 0 0 -7.559,-7.55906" />
    <path
       inkscape:connector-curvature="0"
       id="path120"
       style="fill:none;stroke:#000000"
       d="m 1757.9802,725.16926 v 30.23622" />
    <path
       inkscape:connector-curvature="0"
       id="path122"
       style="fill:none;stroke:#000000"
       d="m 1750.4212,762.96453 a 7.559055,7.559055 0 0 0 7.559,-7.55905" />
    <path
       inkscape:connector-curvature="0"
       id="path124"
       style="fill:none;stroke:#000000"
       d="M 1750.4212,762.96453 H 1553.8857" />
    <path
       inkscape:connector-curvature="0"
       id="path126"
       style="fill:none;stroke:#000000"
       d="m 1546.3267,755.40548 a 7.559055,7.559055 0 0 0 7.559,7.55905" />
    <path
       inkscape:connector-curvature="0"
       id="path128"
       style="fill:none;stroke:#000000"
       d="M 1546.3267,755.40548 V 725.16926" />
    <path
       inkscape:connector-curvature="0"
       id="path130"
       style="fill:none;stroke:#000000"
       d="m 1553.8857,717.6102 a 7.559055,7.559055 0 0 0 -7.559,7.55906" />
    <path
       inkscape:connector-curvature="0"
       id="path132"
       style="fill:none;stroke:#000000"
       d="M 913.63388,505.9568 V 487.05915" />
    <g
       transform="translate(-99.0504,149.66751)"
       id="g1841">
      <path
         inkscape:connector-curvature="0"
         d="M 1913.7236,840.06873 V 828.73014"
         style="fill:none;stroke:#000000"
         id="path18" />
      <path
         inkscape:connector-curvature="0"
         d="M 1913.7236,840.06873 V 972.35219"
         style="fill:none;stroke:#000000"
         id="path30" />
    </g>
    <g
       id="g1847"
       transform="translate(-1913.2236,149.66751)">
      <path
         id="path1843"
         style="fill:none;stroke:#000000"
         d="M 1913.7236,840.06873 V 828.73014"
         inkscape:connector-curvature="0" />
      <path
         id="path1845"
         style="fill:none;stroke:#000000"
         d="M 1913.7236,840.06873 V 972.35219"
         inkscape:connector-curvature="0" />
    </g>
    <g
       transform="translate(91.309381,2.03441)"
       id="g1859">
      <path
         inkscape:connector-curvature="0"
         d="m -90.809381,485.02474 v 480"
         style="fill:none;stroke:#000000"
         id="path90" />
      <path
         inkscape:connector-curvature="0"
         d="m -90.809381,976.36324 v -11.3385"
         style="fill:none;stroke:#000000"
         id="path92" />
    </g>
    <g
       id="g1865"
       transform="translate(1905.4826,2.03441)">
      <path
         id="path1861"
         style="fill:none;stroke:#000000"
         d="m -90.809381,485.02474 v 480"
         inkscape:connector-curvature="0" />
      <path
         id="path1863"
         style="fill:none;stroke:#000000"
         d="m -90.809381,976.36324 v -11.3385"
         inkscape:connector-curvature="0" />
    </g>
  </g>
  <g
     inkscape:groupmode="layer"
     id="layer3"
     inkscape:label="doublure">
    <path
       d="M 926.48425,1059.6574 H 877.35039"
       style="display:inline;fill:none;stroke:#000000"
       id="path918"
       inkscape:connector-curvature="0" />
    <path
       d="m 926.48425,1059.6574 v -41.5748"
       style="display:inline;fill:none;stroke:#000000"
       id="path920"
       inkscape:connector-curvature="0" />
    <path
       d="M 926.48425,1018.0826 H 877.35039"
       style="display:inline;fill:none;stroke:#000000"
       id="path922"
       inkscape:connector-curvature="0" />
    <path
       d="m 877.35039,1059.6574 v -41.5748"
       style="display:inline;fill:none;stroke:#000000"
       id="path924"
       inkscape:connector-curvature="0" />
    <path
       d="m 748.84646,1038.87 a 28.34646,28.34646 0 1 0 -56.69292,0 28.34646,28.34646 0 1 0 56.69292,0 z"
       style="display:inline;fill:none;stroke:#000000"
       id="path942"
       inkscape:connector-curvature="0" />
    <path
       d="m 627.90157,1038.87 a 28.346457,28.346457 0 1 0 -56.69291,0 28.346457,28.346457 0 1 0 56.69291,0 z"
       style="display:inline;fill:none;stroke:#000000"
       id="path944"
       inkscape:connector-curvature="0" />
    <path
       d="m 1126.7992,1038.87 a 17.007874,17.007874 0 1 0 -34.0157,0 17.007874,17.007874 0 1 0 34.0157,0 z"
       style="display:inline;fill:none;stroke:#000000"
       id="path946"
       inkscape:connector-curvature="0" />
    <path
       d="m 1032.311,1038.87 a 17.007874,17.007874 0 1 0 -34.01573,0 17.007874,17.007874 0 1 0 34.01573,0 z"
       style="display:inline;fill:none;stroke:#000000"
       id="path948"
       inkscape:connector-curvature="0" />
    <path
       d="m 442.70472,1038.87 a 17.007874,17.007874 0 1 0 -34.01574,0 17.007874,17.007874 0 1 0 34.01574,0 z"
       style="display:inline;fill:none;stroke:#000000"
       id="path950"
       inkscape:connector-curvature="0" />
    <path
       d="m 348.21653,1038.87 a 17.007874,17.007874 0 1 0 -34.01574,0 17.007874,17.007874 0 1 0 34.01574,0 z"
       style="display:inline;fill:none;stroke:#000000"
       id="path952"
       inkscape:connector-curvature="0" />
    <path
       style="opacity:1;fill:none;fill-opacity:1;stroke:#000000;stroke-width:1.18825924;stroke-linecap:square;stroke-linejoin:round;stroke-miterlimit:4;stroke-dasharray:none;stroke-opacity:1"
       d="M 3.2835398,998.3894 H 1810.8897 c 1.4899,0 2.6894,1.19948 2.6894,2.6894 v 118.1573 c 0,1.49 -1.1995,2.6895 -2.6894,2.6895 H 3.2835398 c -1.4899332,0 -2.68941018,-1.1995 -2.68941018,-2.6895 v -118.1573 c 0,-1.48992 1.19947698,-2.6894 2.68941018,-2.6894 z"
       id="rect972" />
    <path
       style="opacity:1;fill:none;fill-opacity:1;stroke:#000000;stroke-width:2.10440874;stroke-linecap:square;stroke-linejoin:round;stroke-miterlimit:4;stroke-dasharray:none;stroke-opacity:1"
       d="m 1263.9144,1017.2451 h 88.6043 v 43.2499 h -88.6043 z"
       id="rect993" />
    <path
       style="opacity:1;fill:none;fill-opacity:1;stroke:#000000;stroke-width:1.44516075;stroke-linecap:square;stroke-linejoin:round;stroke-miterlimit:4;stroke-dasharray:none;stroke-opacity:1"
       d="m 1423.2698,1026.3643 h 72.2556 v 25.0115 h -72.2556 z"
       id="rect995" />
  </g>
  <g
     inkscape:groupmode="layer"
     id="layer2"
     inkscape:label="texte"
     style="display:none">
    <text
       id="text978"
       y="1073.7146"
       x="331.43753"
       style="font-style:normal;font-weight:normal;font-size:40px;line-height:1.25;font-family:sans-serif;letter-spacing:0px;word-spacing:0px;display:inline;fill:#000000;fill-opacity:1;stroke:none"
       xml:space="preserve"><tspan
         style="font-style:normal;font-variant:normal;font-weight:normal;font-stretch:normal;font-size:16px;font-family:FreeMono;-inkscape-font-specification:FreeMono;text-align:center;text-anchor:middle"
         y="1073.7146"
         x="331.43753"
         id="tspan976"
         sodipodi:role="line">out</tspan></text>
    <text
       xml:space="preserve"
       style="font-style:normal;font-weight:normal;font-size:40px;line-height:1.25;font-family:sans-serif;letter-spacing:0px;word-spacing:0px;display:inline;fill:#000000;fill-opacity:1;stroke:none"
       x="425.76572"
       y="1073.7146"
       id="text982"><tspan
         sodipodi:role="line"
         id="tspan980"
         x="425.76572"
         y="1073.7146"
         style="font-style:normal;font-variant:normal;font-weight:normal;font-stretch:normal;font-size:16px;font-family:FreeMono;-inkscape-font-specification:FreeMono;text-align:center;text-anchor:middle">line out</tspan></text>
    <text
       id="text986"
       y="1073.7146"
       x="560.31842"
       style="font-style:normal;font-weight:normal;font-size:40px;line-height:1.25;font-family:sans-serif;text-align:end;letter-spacing:0px;word-spacing:0px;text-anchor:end;display:inline;fill:#000000;fill-opacity:1;stroke:none"
       xml:space="preserve"><tspan
         style="font-style:normal;font-variant:normal;font-weight:normal;font-stretch:normal;font-size:16px;font-family:FreeMono;-inkscape-font-specification:FreeMono;text-align:end;text-anchor:end"
         y="1073.7146"
         x="560.31842"
         id="tspan984"
         sodipodi:role="line">out</tspan></text>
    <text
       id="text994"
       y="1073.7146"
       x="759.87445"
       style="font-style:normal;font-weight:normal;font-size:40px;line-height:1.25;font-family:sans-serif;letter-spacing:0px;word-spacing:0px;display:inline;fill:#000000;fill-opacity:1;stroke:none"
       xml:space="preserve"><tspan
         style="font-style:normal;font-variant:normal;font-weight:normal;font-stretch:normal;font-size:16px;font-family:FreeMono;-inkscape-font-specification:FreeMono;text-align:start;text-anchor:start"
         y="1073.7146"
         x="759.87445"
         id="tspan992"
         sodipodi:role="line">in</tspan></text>
    <text
       xml:space="preserve"
       style="font-style:normal;font-weight:normal;font-size:40px;line-height:1.25;font-family:sans-serif;letter-spacing:0px;word-spacing:0px;display:inline;fill:#000000;fill-opacity:1;stroke:none"
       x="1014.948"
       y="1073.7146"
       id="text998"><tspan
         sodipodi:role="line"
         id="tspan996"
         x="1014.948"
         y="1073.7146"
         style="font-style:normal;font-variant:normal;font-weight:normal;font-stretch:normal;font-size:16px;font-family:FreeMono;-inkscape-font-specification:FreeMono;text-align:center;text-anchor:middle">sustain</tspan></text>
    <text
       id="text1002"
       y="1073.7146"
       x="1109.7562"
       style="font-style:normal;font-weight:normal;font-size:40px;line-height:1.25;font-family:sans-serif;letter-spacing:0px;word-spacing:0px;display:inline;fill:#000000;fill-opacity:1;stroke:none"
       xml:space="preserve"><tspan
         style="font-style:normal;font-variant:normal;font-weight:normal;font-stretch:normal;font-size:16px;font-family:FreeMono;-inkscape-font-specification:FreeMono;text-align:center;text-anchor:middle"
         y="1073.7146"
         x="1109.7562"
         id="tspan1000"
         sodipodi:role="line">expression</tspan></text>
  </g>
  <g
     inkscape:label="texte applati"
     id="layer1"
     inkscape:groupmode="layer"
     style="display:none">
    <g
       id="text1917"
       style="font-style:normal;font-weight:normal;font-size:40px;line-height:1.25;font-family:sans-serif;letter-spacing:0px;word-spacing:0px;fill:#000000;fill-opacity:1;stroke:none"
       aria-label="out" />
    <g
       id="text1921"
       style="font-style:normal;font-weight:normal;font-size:40px;line-height:1.25;font-family:sans-serif;letter-spacing:0px;word-spacing:0px;fill:#000000;fill-opacity:1;stroke:none"
       aria-label="line out" />
    <g
       id="text1925"
       style="font-style:normal;font-weight:normal;font-size:40px;line-height:1.25;font-family:sans-serif;text-align:end;letter-spacing:0px;word-spacing:0px;text-anchor:end;fill:#000000;fill-opacity:1;stroke:none"
       aria-label="out" />
    <g
       id="text1929"
       style="font-style:normal;font-weight:normal;font-size:40px;line-height:1.25;font-family:sans-serif;letter-spacing:0px;word-spacing:0px;fill:#000000;fill-opacity:1;stroke:none"
       aria-label="in" />
    <g
       id="text1933"
       style="font-style:normal;font-weight:normal;font-size:40px;line-height:1.25;font-family:sans-serif;letter-spacing:0px;word-spacing:0px;fill:#000000;fill-opacity:1;stroke:none"
       aria-label="sustain" />
    <g
       id="text1937"
       style="font-style:normal;font-weight:normal;font-size:40px;line-height:1.25;font-family:sans-serif;letter-spacing:0px;word-spacing:0px;fill:#000000;fill-opacity:1;stroke:none"
       aria-label="expression">
      <path
         d="m 1153.2352,1067.4746 -0.56,0.064 -0.496,0.176 -0.384,0.224 -0.352,0.288 -0.256,0.288 -0.224,0.288 -0.16,0.208 v 4.048 h 0.72 l 0.324,0.08 0.108,0.24 -0.108,0.252 -0.324,0.084 h -2.096 l -0.336,-0.084 -0.112,-0.252 0.112,-0.24 0.336,-0.08 h 0.72 v -5.36 h -0.544 l -0.324,-0.084 -0.108,-0.252 0.108,-0.24 0.324,-0.08 h 1.2 v 1.104 l 1.216,-1.04 0.584,-0.216 0.696,-0.072 0.984,0.156 0.808,0.468 0.54,0.7 0.18,0.852 v 4.064 h 0.544 l 0.324,0.08 0.108,0.24 -0.108,0.252 -0.324,0.084 h -1.744 l -0.324,-0.084 -0.108,-0.252 0.108,-0.24 0.324,-0.08 h 0.544 v -3.952 l -0.132,-0.632 -0.396,-0.52 -0.604,-0.36 -0.788,-0.12 v 0 m -9.8977,-0.656 1.416,0.264 1.176,0.792 0.792,1.16 0.264,1.4 -0.268,1.364 -0.804,1.148 -1.18,0.768 -1.396,0.256 -1.408,-0.26 -1.184,-0.78 -0.792,-1.156 -0.264,-1.388 0.264,-1.364 0.792,-1.148 1.184,-0.792 1.408,-0.264 v 0 m 0,0.656 -1.156,0.212 -0.972,0.636 -0.648,0.94 -0.216,1.124 0.216,1.128 0.648,0.952 0.972,0.636 1.156,0.212 1.144,-0.212 0.968,-0.636 0.66,-0.932 0.22,-1.1 -0.216,-1.16 -0.648,-0.952 -0.964,-0.636 -1.164,-0.212 v 0 m -9.2738,-0.432 v 6.016 h 2.56 l 0.336,0.08 0.112,0.24 -0.112,0.252 -0.336,0.084 h -5.776 l -0.324,-0.084 -0.108,-0.252 0.108,-0.24 0.324,-0.08 h 2.56 v -5.36 h -1.888 l -0.324,-0.084 -0.108,-0.252 0.108,-0.24 0.324,-0.08 h 2.544 m -0.032,-3.312 v 1.664 h -0.944 v -1.664 h 0.944 m -7.4497,8.112 -0.136,-0.524 -0.408,-0.388 -1.312,-0.432 -1.536,-0.24 -0.712,-0.196 -0.6,-0.332 -0.408,-0.476 -0.136,-0.628 0.192,-0.716 0.576,-0.58 0.884,-0.384 1.084,-0.128 1.228,0.184 0.964,0.552 v -0.064 l 0.084,-0.336 0.252,-0.112 0.24,0.112 0.08,0.336 v 1.104 l -0.08,0.324 -0.24,0.108 -0.228,-0.092 -0.108,-0.276 -0.192,-0.488 -0.448,-0.376 -0.66,-0.24 -0.828,-0.08 -0.82,0.088 -0.668,0.264 -0.444,0.38 -0.148,0.468 0.136,0.424 0.408,0.312 1.312,0.368 1.536,0.256 0.712,0.224 0.6,0.384 0.408,0.528 0.136,0.688 -0.224,0.836 -0.672,0.684 -1,0.444 -1.24,0.148 -1.396,-0.216 -1.116,-0.648 v 0.176 l -0.08,0.324 -0.24,0.108 -0.252,-0.108 -0.084,-0.324 v -1.328 l 0.084,-0.324 0.252,-0.108 0.24,0.088 0.08,0.264 v 0.112 l 0.18,0.508 0.54,0.436 0.796,0.288 0.948,0.096 0.968,-0.104 0.792,-0.312 0.528,-0.472 0.176,-0.584 v 0 m -9.5938,0 -0.136,-0.524 -0.408,-0.388 -1.312,-0.432 -1.536,-0.24 -0.712,-0.196 -0.6,-0.332 -0.408,-0.476 -0.136,-0.628 0.192,-0.716 0.576,-0.58 0.884,-0.384 1.084,-0.128 1.228,0.184 0.964,0.552 v -0.064 l 0.084,-0.336 0.252,-0.112 0.24,0.112 0.08,0.336 v 1.104 l -0.08,0.324 -0.24,0.108 -0.228,-0.092 -0.108,-0.276 -0.192,-0.488 -0.448,-0.376 -0.66,-0.24 -0.828,-0.08 -0.82,0.088 -0.668,0.264 -0.444,0.38 -0.148,0.468 0.136,0.424 0.408,0.312 1.312,0.368 1.536,0.256 0.712,0.224 0.6,0.384 0.408,0.528 0.136,0.688 -0.224,0.836 -0.672,0.684 -1,0.444 -1.24,0.148 -1.396,-0.216 -1.116,-0.648 v 0.176 l -0.08,0.324 -0.24,0.108 -0.252,-0.108 -0.084,-0.324 v -1.328 l 0.084,-0.324 0.252,-0.108 0.24,0.088 0.08,0.264 v 0.112 l 0.18,0.508 0.54,0.436 0.796,0.288 0.948,0.096 0.968,-0.104 0.792,-0.312 0.528,-0.472 0.176,-0.584 v 0 m -8.5057,-1.312 h -6.656 l 0.352,1.14 0.704,0.892 0.984,0.564 1.192,0.188 1.536,-0.24 1.264,-0.624 0.256,-0.112 0.208,0.096 0.096,0.224 -0.288,0.424 -0.864,0.44 -1.124,0.336 -1.1,0.112 -1.496,-0.272 -1.256,-0.816 -0.84,-1.204 -0.28,-1.436 0.264,-1.336 0.792,-1.096 1.176,-0.744 1.416,-0.248 1.468,0.256 1.172,0.768 0.448,0.546 0.32,0.63 0.256,1.512 v 0 m -6.656,-0.656 h 5.984 l -0.348,-0.98 -0.66,-0.764 -0.904,-0.492 -1.08,-0.164 -1.076,0.164 -0.892,0.492 -0.656,0.756 -0.368,0.988 v 0 m -2.9378,-1.664 -0.496,-0.336 -0.412,-0.252 -0.404,-0.084 -0.556,0.096 -0.58,0.288 -1.904,1.6 v 3.536 h 2.864 l 0.324,0.084 0.108,0.252 -0.108,0.24 -0.324,0.08 h -5.056 l -0.324,-0.084 -0.108,-0.252 0.108,-0.24 0.324,-0.08 h 1.536 v -5.36 h -1.2 l -0.324,-0.084 -0.108,-0.252 0.108,-0.24 0.324,-0.08 h 1.856 v 1.632 l 1.792,-1.392 0.668,-0.3 0.628,-0.1 0.6,0.096 0.52,0.288 0.48,0.608 -0.096,0.24 -0.24,0.096 v 0 m -15.6097,-1.168 v 1.312 l 0.644,-0.712 0.652,-0.472 0.72,-0.264 0.848,-0.088 1.364,0.244 1.116,0.732 0.756,1.076 0.252,1.308 -0.252,1.312 -0.756,1.088 -1.124,0.732 -1.356,0.244 -0.851,-0.096 -0.761,-0.288 -0.671,-0.48 -0.581,-0.672 v 4.016 h 1.568 l 0.324,0.08 0.108,0.24 -0.108,0.252 -0.324,0.084 h -3.088 l -0.324,-0.084 -0.108,-0.252 0.108,-0.24 0.324,-0.08 h 0.864 v -8.336 h -0.864 l -0.324,-0.084 -0.108,-0.252 0.108,-0.24 0.324,-0.08 h 1.52 m 2.848,0.432 -1.096,0.2 -0.92,0.6 -0.624,0.868 -0.208,1.036 0.208,1.052 0.624,0.884 0.92,0.588 1.096,0.196 1.096,-0.196 0.92,-0.588 0.624,-0.868 0.208,-1.036 -0.204,-1.072 -0.612,-0.88 -0.916,-0.588 -1.116,-0.196 v 0 m -9.4818,2.736 2.944,2.848 h 0.144 l 0.324,0.08 0.108,0.24 -0.108,0.252 -0.324,0.084 h -2.112 l -0.324,-0.084 -0.108,-0.252 0.108,-0.24 0.324,-0.08 h 1.04 l -2.48,-2.384 -2.512,2.384 h 1.088 l 0.324,0.08 0.108,0.24 -0.108,0.252 -0.324,0.084 h -2.128 l -0.324,-0.084 -0.108,-0.252 0.108,-0.24 0.324,-0.08 h 0.144 l 2.944,-2.848 -2.608,-2.512 h -0.112 l -0.324,-0.084 -0.108,-0.252 0.108,-0.24 0.324,-0.08 h 1.776 l 0.324,0.08 0.108,0.24 -0.108,0.252 -0.324,0.084 h -0.736 l 2.144,2.08 2.192,-2.08 h -0.768 l -0.324,-0.084 -0.108,-0.252 0.108,-0.24 0.324,-0.08 h 1.76 l 0.324,0.08 0.108,0.24 -0.108,0.252 -0.324,0.084 h -0.112 l -2.608,2.512 m -6.5377,0.32 h -6.656 l 0.352,1.14 0.704,0.892 0.984,0.564 1.192,0.188 1.536,-0.24 1.264,-0.624 0.256,-0.112 0.208,0.096 0.096,0.224 -0.288,0.424 -0.864,0.44 -1.124,0.336 -1.1,0.112 -1.496,-0.272 -1.256,-0.816 -0.84,-1.204 -0.28,-1.436 0.264,-1.336 0.792,-1.096 1.176,-0.744 1.416,-0.248 1.468,0.256 1.172,0.768 0.448,0.546 0.32,0.63 0.256,1.512 v 0 m -6.656,-0.656 h 5.984 l -0.348,-0.98 -0.66,-0.764 -0.904,-0.492 -1.08,-0.164 -1.076,0.164 -0.892,0.492 -0.656,0.756 -0.368,0.988 v 0 m -19.4151,-2.4 -0.56,0.064 -0.496,0.176 -0.384,0.224 -0.352,0.288 -0.256,0.288 -0.224,0.288 -0.16,0.208 v 4.048 h 0.72 l 0.324,0.08 0.108,0.24 -0.108,0.252 -0.324,0.084 h -2.096 l -0.336,-0.084 -0.112,-0.252 0.112,-0.24 0.336,-0.08 h 0.72 v -5.36 h -0.544 l -0.324,-0.084 -0.108,-0.252 0.108,-0.24 0.324,-0.08 h 1.2 v 1.104 l 1.216,-1.04 0.584,-0.216 0.696,-0.072 0.984,0.156 0.808,0.468 0.54,0.7 0.18,0.852 v 4.064 h 0.544 l 0.324,0.08 0.108,0.24 -0.108,0.252 -0.324,0.084 h -1.744 l -0.324,-0.084 -0.108,-0.252 0.108,-0.24 0.324,-0.08 h 0.544 v -3.952 l -0.132,-0.632 -0.396,-0.52 -0.604,-0.36 -0.788,-0.12 v 0 m -9.5778,-0.432 v 6.016 h 2.56 l 0.336,0.08 0.112,0.24 -0.112,0.252 -0.336,0.084 h -5.776 l -0.324,-0.084 -0.108,-0.252 0.108,-0.24 0.324,-0.08 h 2.56 v -5.36 h -1.888 l -0.324,-0.084 -0.108,-0.252 0.108,-0.24 0.324,-0.08 h 2.544 m -0.032,-3.312 v 1.664 h -0.944 v -1.664 h 0.944 m -12.6817,3.936 0.272,-0.324 0.816,-0.268 1.696,-0.256 1.02,0.14 0.82,0.42 0.552,0.632 0.184,0.776 v 4.272 h 0.864 l 0.324,0.08 0.108,0.24 -0.108,0.252 -0.324,0.084 h -1.52 v -1.072 l -0.725,0.581 -0.751,0.415 -0.777,0.249 -0.803,0.083 -1.012,-0.14 -0.796,-0.42 -0.516,-0.66 -0.172,-0.828 0.232,-0.94 0.696,-0.74 1.084,-0.492 1.364,-0.164 2.176,0.336 v -1.136 l -0.136,-0.532 -0.408,-0.412 -0.628,-0.276 -0.796,-0.092 -1.52,0.256 -0.912,0.256 -0.224,-0.096 -0.08,-0.224 v 0 m 4.704,4.256 v -1.44 l -2.048,-0.24 -1.148,0.12 -0.916,0.36 -0.588,0.536 -0.196,0.68 0.124,0.564 0.372,0.444 0.58,0.276 0.748,0.092 0.812,-0.08 0.74,-0.24 0.74,-0.428 0.78,-0.644 v 0 m -13.3218,-4.88 h 3.52 l 0.324,0.08 0.108,0.24 -0.108,0.252 -0.324,0.084 h -3.52 v 4.272 l 0.12,0.548 0.36,0.428 0.568,0.276 0.744,0.092 1.424,-0.176 1.232,-0.464 0.256,-0.096 0.208,0.096 0.096,0.224 -0.272,0.356 -0.816,0.364 -1.06,0.264 -1.036,0.088 -1.02,-0.132 -0.788,-0.396 -0.504,-0.632 -0.168,-0.808 v -4.304 h -1.184 l -0.336,-0.084 -0.112,-0.252 0.112,-0.24 0.336,-0.08 h 1.184 v -1.904 l 0.084,-0.324 0.252,-0.108 0.24,0.108 0.08,0.324 v 1.904 m -5.3377,4.8 -0.136,-0.524 -0.408,-0.388 -1.312,-0.432 -1.536,-0.24 -0.712,-0.196 -0.6,-0.332 -0.408,-0.476 -0.136,-0.628 0.192,-0.716 0.576,-0.58 0.884,-0.384 1.084,-0.128 1.228,0.184 0.964,0.552 v -0.064 l 0.084,-0.336 0.252,-0.112 0.24,0.112 0.08,0.336 v 1.104 l -0.08,0.324 -0.24,0.108 -0.228,-0.092 -0.108,-0.276 -0.192,-0.488 -0.448,-0.376 -0.66,-0.24 -0.828,-0.08 -0.82,0.088 -0.668,0.264 -0.444,0.38 -0.148,0.468 0.136,0.424 0.408,0.312 1.312,0.368 1.536,0.256 0.712,0.224 0.6,0.384 0.408,0.528 0.136,0.688 -0.224,0.836 -0.672,0.684 -1,0.444 -1.24,0.148 -1.396,-0.216 -1.116,-0.648 v 0.176 l -0.08,0.324 -0.24,0.108 -0.252,-0.108 -0.084,-0.324 v -1.328 l 0.084,-0.324 0.252,-0.108 0.24,0.088 0.08,0.264 v 0.112 l 0.18,0.508 0.54,0.436 0.796,0.288 0.948,0.096 0.968,-0.104 0.792,-0.312 0.528,-0.472 0.176,-0.584 v 0 m -9.80178,1.872 v -1.056 l -0.686,0.574 -0.714,0.41 -0.742,0.246 -0.77,0.082 -0.868,-0.144 -0.684,-0.432 -0.432,-0.668 -0.144,-0.852 v -4.176 h -0.864 l -0.324,-0.084 -0.108,-0.252 0.108,-0.24 0.324,-0.08 h 1.52 v 4.832 l 0.104,0.56 0.312,0.464 0.476,0.312 0.564,0.104 0.783,-0.09 0.749,-0.27 0.715,-0.45 0.681,-0.63 v -4.176 h -1.184 l -0.336,-0.084 -0.112,-0.252 0.112,-0.24 0.336,-0.08 h 1.84 v 6.016 h 0.544 l 0.324,0.08 0.108,0.24 -0.108,0.252 -0.324,0.084 h -1.2 m -9.38575,-1.872 -0.136,-0.524 -0.408,-0.388 -1.312,-0.432 -1.536,-0.24 -0.712,-0.196 -0.6,-0.332 -0.408,-0.476 -0.136,-0.628 0.192,-0.716 0.576,-0.58 0.884,-0.384 1.084,-0.128 1.228,0.184 0.964,0.552 v -0.064 l 0.084,-0.336 0.252,-0.112 0.24,0.112 0.08,0.336 v 1.104 l -0.08,0.324 -0.24,0.108 -0.228,-0.092 -0.108,-0.276 -0.192,-0.488 -0.448,-0.376 -0.66,-0.24 -0.828,-0.08 -0.82,0.088 -0.668,0.264 -0.444,0.38 -0.148,0.468 0.136,0.424 0.408,0.312 1.312,0.368 1.536,0.256 0.712,0.224 0.6,0.384 0.408,0.528 0.136,0.688 -0.224,0.836 -0.672,0.684 -1,0.444 -1.24,0.148 -1.396,-0.216 -1.116,-0.648 v 0.176 l -0.08,0.324 -0.24,0.108 -0.252,-0.108 -0.084,-0.324 v -1.328 l 0.084,-0.324 0.252,-0.108 0.24,0.088 0.08,0.264 v 0.112 l 0.18,0.508 0.54,0.436 0.796,0.288 0.948,0.096 0.968,-0.104 0.792,-0.312 0.528,-0.472 0.176,-0.584 v 0 m -214.02967,-4.368 -0.56,0.064 -0.496,0.176 -0.384,0.224 -0.352,0.288 -0.256,0.288 -0.224,0.288 -0.16,0.208 v 4.048 h 0.72 l 0.324,0.08 0.108,0.24 -0.108,0.252 -0.324,0.084 h -2.096 l -0.336,-0.084 -0.112,-0.252 0.112,-0.24 0.336,-0.08 h 0.72 v -5.36 h -0.544 l -0.324,-0.084 -0.108,-0.252 0.108,-0.24 0.324,-0.08 h 1.2 v 1.104 l 1.216,-1.04 0.584,-0.216 0.696,-0.072 0.984,0.156 0.808,0.468 0.54,0.7 0.18,0.852 v 4.064 h 0.544 l 0.324,0.08 0.108,0.24 -0.108,0.252 -0.324,0.084 h -1.744 l -0.324,-0.084 -0.108,-0.252 0.108,-0.24 0.324,-0.08 h 0.544 v -3.952 l -0.132,-0.632 -0.396,-0.52 -0.604,-0.36 -0.788,-0.12 v 0 m -9.57775,-0.432 v 6.016 h 2.56 l 0.336,0.08 0.112,0.24 -0.112,0.252 -0.336,0.084 h -5.776 l -0.324,-0.084 -0.108,-0.252 0.108,-0.24 0.324,-0.08 h 2.56 v -5.36 h -1.888 l -0.324,-0.084 -0.108,-0.252 0.108,-0.24 0.324,-0.08 h 2.544 m -0.032,-3.312 v 1.664 h -0.944 v -1.664 h 0.944 m -211.26178,3.312 h 3.52 l 0.324,0.08 0.108,0.24 -0.108,0.252 -0.324,0.084 h -3.52 v 4.272 l 0.12,0.548 0.36,0.428 0.568,0.276 0.744,0.092 1.424,-0.176 1.232,-0.464 0.256,-0.096 0.208,0.096 0.096,0.224 -0.272,0.356 -0.816,0.364 -1.06,0.264 -1.036,0.088 -1.02,-0.132 -0.788,-0.396 -0.504,-0.632 -0.168,-0.808 v -4.304 h -1.184 l -0.336,-0.084 -0.112,-0.252 0.112,-0.24 0.336,-0.08 h 1.184 v -1.904 l 0.084,-0.324 0.252,-0.108 0.24,0.108 0.08,0.324 v 1.904 m -5.54575,6.672 v -1.056 l -0.686,0.574 -0.714,0.41 -0.742,0.246 -0.77,0.082 -0.868,-0.144 -0.684,-0.432 -0.432,-0.668 -0.144,-0.852 v -4.176 h -0.864 l -0.324,-0.084 -0.108,-0.252 0.108,-0.24 0.324,-0.08 h 1.52 v 4.832 l 0.104,0.56 0.312,0.464 0.476,0.312 0.564,0.104 0.783,-0.09 0.749,-0.27 0.715,-0.45 0.681,-0.63 v -4.176 h -1.184 l -0.336,-0.084 -0.112,-0.252 0.112,-0.24 0.336,-0.08 h 1.84 v 6.016 h 0.544 l 0.324,0.08 0.108,0.24 -0.108,0.252 -0.324,0.084 h -1.2 m -11.81775,-6.896 1.416,0.264 1.176,0.792 0.792,1.16 0.264,1.4 -0.268,1.364 -0.804,1.148 -1.18,0.768 -1.396,0.256 -1.408,-0.26 -1.184,-0.78 -0.792,-1.156 -0.264,-1.388 0.264,-1.364 0.792,-1.148 1.184,-0.792 1.408,-0.264 v 0 m 0,0.656 -1.156,0.212 -0.972,0.636 -0.648,0.94 -0.216,1.124 0.216,1.128 0.648,0.952 0.972,0.636 1.156,0.212 1.144,-0.212 0.968,-0.636 0.66,-0.932 0.22,-1.1 -0.216,-1.16 -0.648,-0.952 -0.964,-0.636 -1.164,-0.212 v 0 m -78.8142,-0.432 h 3.52 l 0.324,0.08 0.108,0.24 -0.108,0.252 -0.324,0.084 h -3.52 v 4.272 l 0.12,0.548 0.36,0.428 0.568,0.276 0.744,0.092 1.424,-0.176 1.232,-0.464 0.256,-0.096 0.208,0.096 0.096,0.224 -0.272,0.356 -0.816,0.364 -1.06,0.264 -1.036,0.088 -1.02,-0.132 -0.788,-0.396 -0.504,-0.632 -0.168,-0.808 v -4.304 h -1.184 l -0.336,-0.084 -0.112,-0.252 0.112,-0.24 0.336,-0.08 h 1.184 v -1.904 l 0.084,-0.324 0.252,-0.108 0.24,0.108 0.08,0.324 v 1.904 m -5.54575,6.672 v -1.056 l -0.686,0.574 -0.714,0.41 -0.742,0.246 -0.77,0.082 -0.868,-0.144 -0.684,-0.432 -0.432,-0.668 -0.144,-0.852 v -4.176 h -0.864 l -0.324,-0.084 -0.108,-0.252 0.108,-0.24 0.324,-0.08 h 1.52 v 4.832 l 0.104,0.56 0.312,0.464 0.476,0.312 0.564,0.104 0.783,-0.09 0.749,-0.27 0.715,-0.45 0.681,-0.63 v -4.176 h -1.184 l -0.336,-0.084 -0.112,-0.252 0.112,-0.24 0.336,-0.08 h 1.84 v 6.016 h 0.544 l 0.324,0.08 0.108,0.24 -0.108,0.252 -0.324,0.084 h -1.2 m -11.81775,-6.896 1.416,0.264 1.176,0.792 0.792,1.16 0.264,1.4 -0.268,1.364 -0.804,1.148 -1.18,0.768 -1.396,0.256 -1.408,-0.26 -1.184,-0.78 -0.792,-1.156 -0.264,-1.388 0.264,-1.364 0.792,-1.148 1.184,-0.792 1.408,-0.264 v 0 m 0,0.656 -1.156,0.212 -0.972,0.636 -0.648,0.94 -0.216,1.124 0.216,1.128 0.648,0.952 0.972,0.636 1.156,0.212 1.144,-0.212 0.968,-0.636 0.66,-0.932 0.22,-1.1 -0.216,-1.16 -0.648,-0.952 -0.964,-0.636 -1.164,-0.212 v 0 m -15.6675,3.056 h -6.656 l 0.352,1.14 0.704,0.892 0.984,0.564 1.192,0.188 1.536,-0.24 1.264,-0.624 0.256,-0.112 0.208,0.096 0.096,0.224 -0.288,0.424 -0.864,0.44 -1.124,0.336 -1.1,0.112 -1.496,-0.272 -1.256,-0.816 -0.84,-1.204 -0.28,-1.436 0.264,-1.336 0.792,-1.096 1.176,-0.744 1.416,-0.248 1.468,0.256 1.172,0.768 0.448,0.546 0.32,0.63 0.256,1.512 v 0 m -6.656,-0.656 h 5.984 l -0.348,-0.98 -0.66,-0.764 -0.904,-0.492 -1.08,-0.164 -1.076,0.164 -0.892,0.492 -0.656,0.756 -0.368,0.988 v 0 m -6.15375,-2.4 -0.56,0.064 -0.496,0.176 -0.384,0.224 -0.352,0.288 -0.256,0.288 -0.224,0.288 -0.16,0.208 v 4.048 h 0.72 l 0.324,0.08 0.108,0.24 -0.108,0.252 -0.324,0.084 h -2.096 l -0.336,-0.084 -0.112,-0.252 0.112,-0.24 0.336,-0.08 h 0.72 v -5.36 h -0.544 l -0.324,-0.084 -0.108,-0.252 0.108,-0.24 0.324,-0.08 h 1.2 v 1.104 l 1.216,-1.04 0.584,-0.216 0.696,-0.072 0.984,0.156 0.808,0.468 0.54,0.7 0.18,0.852 v 4.064 h 0.544 l 0.324,0.08 0.108,0.24 -0.108,0.252 -0.324,0.084 h -1.744 l -0.324,-0.084 -0.108,-0.252 0.108,-0.24 0.324,-0.08 h 0.544 v -3.952 l -0.132,-0.632 -0.396,-0.52 -0.604,-0.36 -0.788,-0.12 v 0 m -9.57775,-0.432 v 6.016 h 2.56 l 0.336,0.08 0.112,0.24 -0.112,0.252 -0.336,0.084 h -5.776 l -0.324,-0.084 -0.108,-0.252 0.108,-0.24 0.324,-0.08 h 2.56 v -5.36 h -1.888 l -0.324,-0.084 -0.108,-0.252 0.108,-0.24 0.324,-0.08 h 2.544 m -0.032,-3.312 v 1.664 h -0.944 v -1.664 h 0.944 m -9.56175,0.32 v 9.008 h 2.56 l 0.336,0.08 0.112,0.24 -0.112,0.252 -0.336,0.084 h -5.776 l -0.324,-0.084 -0.108,-0.252 0.108,-0.24 0.324,-0.08 h 2.56 v -8.352 h -1.872 l -0.324,-0.084 -0.108,-0.252 0.108,-0.24 0.324,-0.08 h 2.528 m -53.30031,2.992 h 3.52 l 0.324,0.08 0.108,0.24 -0.108,0.252 -0.324,0.084 h -3.52 v 4.272 l 0.12,0.548 0.36,0.428 0.568,0.276 0.744,0.092 1.424,-0.176 1.232,-0.464 0.256,-0.096 0.208,0.096 0.096,0.224 -0.272,0.356 -0.816,0.364 -1.06,0.264 -1.036,0.088 -1.02,-0.132 -0.788,-0.396 -0.504,-0.632 -0.168,-0.808 v -4.304 h -1.184 l -0.336,-0.084 -0.112,-0.252 0.112,-0.24 0.336,-0.08 h 1.184 v -1.904 l 0.084,-0.324 0.252,-0.108 0.24,0.108 0.08,0.324 v 1.904 m -5.54575,6.672 v -1.056 l -0.686,0.574 -0.714,0.41 -0.742,0.246 -0.77,0.082 -0.868,-0.144 -0.684,-0.432 -0.432,-0.668 -0.144,-0.852 v -4.176 h -0.864 l -0.324,-0.084 -0.108,-0.252 0.108,-0.24 0.324,-0.08 h 1.52 v 4.832 l 0.104,0.56 0.312,0.464 0.476,0.312 0.564,0.104 0.783,-0.09 0.749,-0.27 0.715,-0.45 0.681,-0.63 v -4.176 h -1.184 l -0.336,-0.084 -0.112,-0.252 0.112,-0.24 0.336,-0.08 h 1.84 v 6.016 h 0.544 l 0.324,0.08 0.108,0.24 -0.108,0.252 -0.324,0.084 h -1.2 m -11.81775,-6.896 1.416,0.264 1.176,0.792 0.792,1.16 0.264,1.4 -0.268,1.364 -0.804,1.148 -1.18,0.768 -1.396,0.256 -1.408,-0.26 -1.184,-0.78 -0.792,-1.156 -0.264,-1.388 0.264,-1.364 0.792,-1.148 1.184,-0.792 1.408,-0.264 v 0 m 0,0.656 -1.156,0.212 -0.972,0.636 -0.648,0.94 -0.216,1.124 0.216,1.128 0.648,0.952 0.972,0.636 1.156,0.212 1.144,-0.212 0.968,-0.636 0.66,-0.932 0.22,-1.1 -0.216,-1.16 -0.648,-0.952 -0.964,-0.636 -1.164,-0.212 v 0"
         style="font-style:normal;font-variant:normal;font-weight:normal;font-stretch:normal;font-size:16px;font-family:FreeMono;-inkscape-font-specification:FreeMono;text-align:center;text-anchor:middle"
         id="path1970"
         inkscape:connector-curvature="0" />
    </g>
    <rect
       y="1072.5328"
       x="0.37795374"
       height="49.608826"
       width="49.609093"
       id="rect1886"
       style="opacity:1;fill:none;fill-opacity:1;stroke:#ff9d9d;stroke-width:0.75590748;stroke-linecap:square;stroke-linejoin:round;stroke-miterlimit:4;stroke-dasharray:none;stroke-opacity:1" />
  </g>
</svg>
